#N struct 1005-symarray float x array symbols 1005-sym;
#N struct 1005-sym symbol name float on;
#N struct 1006-symarray float x array symbols 1006-sym;
#N struct 1006-sym symbol name float on;
#N canvas -1088 0 745 806 10;
#X obj 167 193 textfile;
#X obj 98 423 list prepend open;
#X obj 98 446 list trim;
#X obj 167 168 until;
#X obj 167 66 t b b b;
#X obj 167 41 loadbang;
#X obj 98 287 list split 1;
#X obj 98 401 list;
#X obj 98 594 outlet;
#X msg 208 169 read \$1/\$2.txt \, rewind;
#X obj 208 99 t b b;
#X obj 208 123 symbol \$1;
#X obj 269 123 symbol \$2;
#X obj 98 333 symbol \$1;
#X obj 159 333 symbol \$2;
#X obj 98 309 t b s;
#X obj 208 147 pack s s;
#X obj 98 357 pack s s;
#X msg 98 379 \$1/\$2;
#X obj 98 574 list trim;
#X obj 166 469 t f f;
#X msg 193 490 size \$1;
#X obj 98 554 pack s f;
#X obj 98 511 u_multisamplebank \$0-samples;
#X obj 121 22 bng 15 250 50 0 empty empty empty 17 7 0 10 -262144 -1
-1;
#X msg 143 533 \$2;
#X obj 369 629 outlet;
#X obj 396 584 m_symbolarray;
#X obj 404 541 r \$0-reset;
#X obj 348 134 s \$0-reset;
#X obj 263 467 r \$0-reset;
#X msg 263 489 reset;
#X obj 167 214 s \$0-fileinfo;
#X obj 369 428 r \$0-sample-number;
#X obj 166 447 r \$0-sample-number;
#X obj 471 451 r \$0-fileinfo;
#X obj 471 471 unpack s f;
#X obj 471 541 pack f s;
#X obj 471 519 i;
#X obj 471 495 t b a;
#X msg 348 111 reset;
#X obj 471 562 t a b;
#X obj 498 584 i;
#X obj 526 584 + 1;
#X msg 513 563 0;
#X obj 98 264 r \$0-fileinfo;
#X obj 295 365 s \$0-sample-number;
#X obj 295 296 inlet;
#X obj 295 342 min;
#X obj 295 318 max 0;
#X obj 575 605 s \$0-numofsamples;
#X obj 337 317 r \$0-numofsamples;
#X obj 526 606 outlet;
#X connect 0 0 32 0;
#X connect 0 1 3 1;
#X connect 1 0 2 0;
#X connect 2 0 23 0;
#X connect 3 0 0 0;
#X connect 4 0 3 0;
#X connect 4 1 10 0;
#X connect 4 2 40 0;
#X connect 5 0 4 0;
#X connect 6 0 15 0;
#X connect 6 1 7 1;
#X connect 7 0 1 0;
#X connect 9 0 0 0;
#X connect 10 0 11 0;
#X connect 10 1 12 0;
#X connect 11 0 16 0;
#X connect 12 0 16 1;
#X connect 13 0 17 0;
#X connect 14 0 17 1;
#X connect 15 0 13 0;
#X connect 15 1 14 0;
#X connect 16 0 9 0;
#X connect 17 0 18 0;
#X connect 18 0 7 0;
#X connect 19 0 8 0;
#X connect 20 0 23 0;
#X connect 20 1 21 0;
#X connect 21 0 23 0;
#X connect 22 0 19 0;
#X connect 23 0 22 0;
#X connect 23 1 25 0;
#X connect 24 0 4 0;
#X connect 25 0 22 1;
#X connect 27 0 26 0;
#X connect 28 0 27 0;
#X connect 28 0 44 0;
#X connect 30 0 31 0;
#X connect 31 0 23 1;
#X connect 33 0 27 0;
#X connect 34 0 20 0;
#X connect 35 0 36 0;
#X connect 36 0 39 0;
#X connect 36 1 38 1;
#X connect 37 0 41 0;
#X connect 38 0 37 0;
#X connect 39 0 38 0;
#X connect 39 1 37 1;
#X connect 40 0 29 0;
#X connect 41 0 27 1;
#X connect 41 1 42 0;
#X connect 42 0 43 0;
#X connect 43 0 42 1;
#X connect 43 0 50 0;
#X connect 43 0 52 0;
#X connect 44 0 42 1;
#X connect 45 0 6 0;
#X connect 47 0 49 0;
#X connect 48 0 46 0;
#X connect 49 0 48 0;
#X connect 51 0 48 1;
