#N canvas -821 183 427 242 10;
#X obj 169 32 r transport;
#X obj 83 62 bng 30 250 50 0 \$0-panicsend \$0-panicrecv empty 17 7
0 10 -262144 -1 -1;
#X obj 52 62 tgl 30 0 empty \$0-playdisplay empty 17 7 0 10 -262144
-1 -1 0 1;
#X msg 169 97 1;
#X msg 200 98 0;
#X obj 169 68 route play stop fastrewind;
#X obj 169 135 s \$0-playdisplay;
#X obj 258 97 s \$0-panicrecv;
#X obj 285 137 r \$0-panicsend;
#X text 51 42 play;
#X text 82 42 panic;
#X msg 285 160 all midinote 60 0;
#X obj 285 183 s voices;
#X connect 0 0 5 0;
#X connect 3 0 6 0;
#X connect 4 0 6 0;
#X connect 5 0 3 0;
#X connect 5 1 4 0;
#X connect 5 1 7 0;
#X connect 5 2 4 0;
#X connect 5 2 7 0;
#X connect 8 0 11 0;
#X connect 11 0 12 0;
#X coords 0 -1 1 1 65 34 2 50 60;
