#N struct 1013-symarray float x array symbols 1013-sym;
#N struct 1013-sym symbol name float on;
#N struct 1014-symarray float x array symbols 1014-sym;
#N struct 1014-sym symbol name float on;
#N canvas -1500 227 571 350 10;
#X obj 81 204 route all;
#X obj 268 108 sampleBank samples samplelist;
#X obj 236 32 loadbang;
#X obj 268 152 list trim;
#X symbolatom 102 132 20 0 0 0 - #0-samplename -;
#X floatatom 102 102 5 0 0 0 - #0-numofsamples -;
#X text 135 102 samples;
#X text 100 116 sample name;
#X obj 268 86 route samplenumber;
#X obj 301 237 hann_envelope \$0 512;
#X obj 46 267 outlet~;
#X obj 223 267 outlet~;
#X obj 81 182 inlet;
#X obj 268 66 inlet;
#X obj 268 130 list prepend all sample;
#X obj 353 156 s \$0-samplename;
#X obj 439 132 s \$0-numofsamples;
#X msg 236 54 1;
#X obj 47 243 voicebank \$1 GrainVoice \$0 512;
#X floatatom 189 106 5 0 0 0 - #0-playsamprecv #0-playsampsend;
#X obj 350 41 r \$0-playsampsend;
#X obj 243 196 s \$0-playsamprecv;
#X connect 0 0 18 1;
#X connect 0 1 18 0;
#X connect 1 0 14 0;
#X connect 1 1 15 0;
#X connect 1 2 16 0;
#X connect 2 0 17 0;
#X connect 3 0 0 0;
#X connect 8 0 1 0;
#X connect 8 0 21 0;
#X connect 12 0 0 0;
#X connect 13 0 8 0;
#X connect 14 0 3 0;
#X connect 17 0 1 0;
#X connect 17 0 21 0;
#X connect 18 0 10 0;
#X connect 18 1 11 0;
#X connect 20 0 1 0;
#X coords 0 -1 1 1 126 50 2 100 100;
