#N canvas -1713 66 1473 757 10;
#X obj 101 185 /~;
#X obj 101 213 *~;
#X obj 214 674 outlet~;
#X obj 339 87 t f b;
#X obj 366 111 samplerate~;
#X obj 101 106 samplerate~;
#X obj 101 131 sig~;
#X obj 101 82 loadbang;
#X obj 101 242 phasor~;
#X obj 140 218 r \$0-reset;
#X obj 378 351 wrap~;
#X obj 378 328 +~ 0.5;
#X obj 378 402 *~;
#X obj 525 403 r hannenvsize;
#X obj 504 427 *~ 1;
#X obj 503 454 tabread4~ hannenvelope;
#X obj 379 452 tabread4~;
#X obj 380 486 *~;
#X obj 99 372 *~;
#X obj 245 360 r hannenvsize;
#X obj 224 384 *~ 1;
#X obj 224 410 tabread4~ hannenvelope;
#X obj 99 420 tabread4~;
#X obj 99 447 *~;
#X obj 100 395 +~;
#X obj 130 373 r~ \$0-pos;
#X obj 378 426 +~;
#X obj 100 323 +~ 0;
#X obj 240 560 +~;
#X obj 339 201 line~;
#X msg 339 180 \$1 20;
#X obj 851 180 line~;
#X msg 851 159 \$1 20;
#X obj 496 134 s \$0-name;
#X obj 496 84 list prepend set;
#X obj 496 109 list trim;
#X obj 1000 140 / 60;
#X obj 1000 164 s \$0-speed;
#X obj 131 398 r \$0-name;
#X obj 406 425 r \$0-name;
#X obj 496 59 r \$0-name-set;
#X obj 861 86 r \$0-speed-mod-set;
#X obj 851 63 r \$0-speed;
#X obj 851 137 *;
#X obj 861 111 t b f;
#X obj 137 182 r~ \$0-grain-speed;
#X obj 852 203 s~ \$0-grain-speed;
#X obj 1000 117 spigot;
#X obj 1069 191 / 127;
#X obj 1069 215 t a a;
#X obj 240 585 *~;
#X obj 267 560 r~ \$0-env;
#X obj 1069 263 s~ \$0-env;
#X obj 241 629 e_pan;
#X obj 268 605 r \$0-pan-set;
#X obj 279 674 outlet~;
#X obj 1118 165 r \$0-attack-set;
#X obj 1142 186 r \$0-decay-set;
#X obj 1167 206 r \$0-sustain-set;
#X obj 1192 226 r \$0-release-set;
#X obj 339 60 r \$0-grainlength-set;
#X obj 338 224 s~ \$0-length;
#X obj 393 378 r~ \$0-length;
#X obj 114 347 r~ \$0-length;
#X obj 408 401 r~ \$0-pos;
#X obj 806 286 inlet;
#X obj 877 283 inlet;
#X obj 366 135 / 1000;
#X obj 339 159 *;
#X obj 120 154 r~ \$0-length;
#X obj 620 82 unpack s f;
#X obj 620 60 r \$0-sample-set;
#X obj 677 127 / 100;
#X obj 677 149 *;
#X obj 716 125 t b f;
#X obj 716 103 r \$0-position-set;
#X obj 677 193 line~;
#X msg 677 171 \$1 20;
#X obj 677 215 s~ \$0-pos;
#X obj 620 104 s \$0-name-set;
#X text 785 320 left inlet are messages for specific grains;
#X text 785 335 right inlet are messages for all grains;
#X obj 830 383 paramsend sample \$0;
#X obj 830 408 paramsend speed-mod \$0 default 1;
#X obj 830 433 paramsend grainlength \$0 default 50;
#X obj 830 458 paramsend position \$0 default 0;
#X obj 830 483 paramsend pan \$0 default 0.5;
#X obj 830 508 paramsend attack \$0 default 50;
#X obj 830 533 paramsend decay \$0 default 50;
#X obj 830 583 paramsend release \$0 default 100;
#X obj 830 558 paramsend sustain \$0 default 100;
#X obj 830 358 paramsend midinote \$0;
#X obj 1069 239 c_adsr;
#X obj 830 608 paramsend active \$0 default 0;
#X obj 1240 110 switch~;
#X obj 1240 89 tgl 15 0 empty empty empty 17 7 0 10 -262144 -1 -1 0
1;
#X obj 1240 66 r \$0-active-set;
#X obj 1000 69 r \$0-midinote-set;
#X obj 1294 149 s \$0-midinote-set;
#X msg 1294 129 60 0;
#X obj 1294 109 sel 0;
#X obj 1000 92 unpack f f f;
#X obj 1069 136 del;
#X obj 1069 157 0;
#X obj 1069 114 t b f;
#X connect 0 0 1 0;
#X connect 1 0 8 0;
#X connect 3 0 68 0;
#X connect 3 1 4 0;
#X connect 4 0 67 0;
#X connect 5 0 6 0;
#X connect 6 0 0 0;
#X connect 7 0 5 0;
#X connect 8 0 27 0;
#X connect 8 0 11 0;
#X connect 9 0 8 1;
#X connect 10 0 14 0;
#X connect 10 0 12 0;
#X connect 11 0 10 0;
#X connect 12 0 26 0;
#X connect 13 0 14 1;
#X connect 14 0 15 0;
#X connect 15 0 17 1;
#X connect 16 0 17 0;
#X connect 17 0 28 1;
#X connect 18 0 24 0;
#X connect 19 0 20 1;
#X connect 20 0 21 0;
#X connect 21 0 23 1;
#X connect 22 0 23 0;
#X connect 23 0 28 0;
#X connect 24 0 22 0;
#X connect 25 0 24 1;
#X connect 26 0 16 0;
#X connect 27 0 20 0;
#X connect 27 0 18 0;
#X connect 28 0 50 0;
#X connect 29 0 61 0;
#X connect 30 0 29 0;
#X connect 31 0 46 0;
#X connect 32 0 31 0;
#X connect 34 0 35 0;
#X connect 35 0 33 0;
#X connect 36 0 37 0;
#X connect 38 0 22 0;
#X connect 39 0 16 0;
#X connect 40 0 34 0;
#X connect 41 0 44 0;
#X connect 42 0 43 0;
#X connect 43 0 32 0;
#X connect 44 0 43 0;
#X connect 44 1 43 1;
#X connect 45 0 1 1;
#X connect 47 0 36 0;
#X connect 48 0 49 0;
#X connect 49 0 92 0;
#X connect 49 1 92 1;
#X connect 50 0 53 0;
#X connect 51 0 50 1;
#X connect 53 0 2 0;
#X connect 53 1 55 0;
#X connect 54 0 53 1;
#X connect 56 0 92 2;
#X connect 57 0 92 3;
#X connect 58 0 92 4;
#X connect 59 0 92 5;
#X connect 60 0 3 0;
#X connect 62 0 12 1;
#X connect 63 0 18 1;
#X connect 64 0 26 1;
#X connect 65 0 91 0;
#X connect 66 0 91 0;
#X connect 67 0 68 1;
#X connect 68 0 30 0;
#X connect 69 0 0 1;
#X connect 70 0 79 0;
#X connect 70 1 72 0;
#X connect 71 0 70 0;
#X connect 72 0 73 0;
#X connect 73 0 77 0;
#X connect 74 0 73 0;
#X connect 74 1 73 1;
#X connect 75 0 74 0;
#X connect 76 0 78 0;
#X connect 77 0 76 0;
#X connect 82 0 83 0;
#X connect 82 1 83 1;
#X connect 83 0 84 0;
#X connect 83 1 84 1;
#X connect 84 0 85 0;
#X connect 84 1 85 1;
#X connect 85 0 86 0;
#X connect 85 1 86 1;
#X connect 86 0 87 0;
#X connect 86 1 87 1;
#X connect 87 0 88 0;
#X connect 87 1 88 1;
#X connect 88 0 90 0;
#X connect 88 1 90 1;
#X connect 89 0 93 0;
#X connect 89 1 93 1;
#X connect 90 0 89 0;
#X connect 90 1 89 1;
#X connect 91 0 82 0;
#X connect 91 1 82 1;
#X connect 92 0 52 0;
#X connect 95 0 94 0;
#X connect 95 0 100 0;
#X connect 96 0 95 0;
#X connect 97 0 101 0;
#X connect 99 0 98 0;
#X connect 100 0 99 0;
#X connect 101 0 47 0;
#X connect 101 1 47 1;
#X connect 101 1 48 0;
#X connect 101 2 104 0;
#X connect 102 0 103 0;
#X connect 103 0 48 0;
#X connect 104 0 102 0;
#X connect 104 1 102 1;
