#N canvas -1677 86 1545 780 10;
#X obj 101 185 /~;
#X obj 101 213 *~;
#X obj 214 674 outlet~;
#X obj 513 67 t f b;
#X obj 540 91 samplerate~;
#X obj 513 139 /;
#X obj 101 106 samplerate~;
#X obj 101 131 sig~;
#X obj 101 82 loadbang;
#X obj 101 242 phasor~;
#X obj 140 218 r \$0-reset;
#X obj 397 291 wrap~;
#X obj 397 268 +~ 0.5;
#X obj 397 342 *~;
#X obj 544 343 r hannenvsize;
#X obj 523 367 *~ 1;
#X obj 522 394 tabread4~ hannenvelope;
#X obj 398 392 tabread4~;
#X obj 399 426 *~;
#X obj 99 372 *~;
#X obj 245 360 r hannenvsize;
#X obj 224 384 *~ 1;
#X obj 224 410 tabread4~ hannenvelope;
#X obj 99 420 tabread4~;
#X obj 99 447 *~;
#X obj 100 395 +~;
#X obj 130 373 r~ \$0-pos;
#X obj 397 366 +~;
#X obj 100 323 +~ 0;
#X obj 240 560 +~;
#X obj 1065 498 paramsend \$0 name;
#X obj 1065 573 paramsend \$0 position;
#X obj 513 181 line~;
#X msg 513 160 \$1 20;
#X obj 869 199 line~;
#X msg 869 178 \$1 20;
#X obj 540 115 * 1000;
#X obj 679 166 s \$0-name;
#X obj 679 116 list prepend set;
#X obj 679 141 list trim;
#X obj 1065 598 paramsend \$0 pan;
#X obj 1170 262 / 60;
#X obj 1170 286 s \$0-speed;
#X obj 1065 523 paramsend \$0 speed-mod;
#X obj 120 154 r~ \$0-grainlength;
#X obj 131 398 r \$0-name;
#X obj 427 368 r \$0-name;
#X obj 679 91 r \$0-name-set;
#X obj 874 87 r \$0-speed-mod-set;
#X obj 856 61 r \$0-speed;
#X obj 869 154 *;
#X obj 874 112 t b f;
#X obj 137 182 r~ \$0-grain-speed;
#X obj 870 225 s~ \$0-grain-speed;
#X obj 1170 132 r \$1-notes-set;
#X obj 1170 156 unpack f f;
#X obj 1170 180 spigot;
#X obj 1227 228 c_adsr 1 50 50 80 100;
#X obj 1227 180 / 127;
#X obj 1227 204 t a a;
#X obj 240 585 *~;
#X obj 267 560 r~ \$0-env;
#X obj 1227 252 s~ \$0-env;
#X obj 241 629 e_pan;
#X obj 268 605 r \$0-pan-set;
#X obj 279 674 outlet~;
#X obj 1065 623 paramsend \$0 attack;
#X obj 1065 648 paramsend \$0 decay;
#X obj 1065 673 paramsend \$0 sustain;
#X obj 1065 698 paramsend \$0 release;
#X obj 1276 144 r \$0-attack-set;
#X obj 1300 165 r \$0-decay-set;
#X obj 1325 185 r \$0-sustain-set;
#X obj 1350 205 r \$0-release-set;
#X obj 1065 423 paramsend \$0 notes;
#X obj 1065 548 paramsend \$0 grainlength;
#X obj 513 40 r \$0-grainlength-set;
#X obj 512 204 s~ \$0-length;
#X obj 412 318 r~ \$0-length;
#X obj 114 347 r~ \$0-length;
#X obj 427 341 r~ \$0-pos;
#X obj 1041 351 inlet;
#X obj 1112 348 inlet;
#X text 1116 374 left inlet is grain specific right inlet is for all
grains;
#X obj 1065 448 paramsend \$0 trigger;
#X obj 1065 473 paramsend \$0 trigger-length;
#X obj 1032 57 r \$0-trigger-set;
#X obj 1032 80 b;
#X obj 1074 83 r \$0-trigger-length-set;
#X obj 1059 129 del;
#X obj 1032 105 t b b;
#X msg 1032 173 60 \$1;
#X obj 1032 129 100;
#X obj 1059 150 0;
#X obj 1032 194 s \$1-notes-set;
#X connect 0 0 1 0;
#X connect 1 0 9 0;
#X connect 3 0 5 0;
#X connect 3 1 4 0;
#X connect 4 0 36 0;
#X connect 5 0 33 0;
#X connect 6 0 7 0;
#X connect 7 0 0 0;
#X connect 8 0 6 0;
#X connect 9 0 28 0;
#X connect 9 0 12 0;
#X connect 10 0 9 1;
#X connect 11 0 15 0;
#X connect 11 0 13 0;
#X connect 12 0 11 0;
#X connect 13 0 27 0;
#X connect 14 0 15 1;
#X connect 15 0 16 0;
#X connect 16 0 18 1;
#X connect 17 0 18 0;
#X connect 18 0 29 1;
#X connect 19 0 25 0;
#X connect 20 0 21 1;
#X connect 21 0 22 0;
#X connect 22 0 24 1;
#X connect 23 0 24 0;
#X connect 24 0 29 0;
#X connect 25 0 23 0;
#X connect 26 0 25 1;
#X connect 27 0 17 0;
#X connect 28 0 21 0;
#X connect 28 0 19 0;
#X connect 29 0 60 0;
#X connect 30 0 43 0;
#X connect 30 1 43 1;
#X connect 31 0 40 0;
#X connect 31 1 40 1;
#X connect 32 0 77 0;
#X connect 33 0 32 0;
#X connect 34 0 53 0;
#X connect 35 0 34 0;
#X connect 36 0 5 1;
#X connect 38 0 39 0;
#X connect 39 0 37 0;
#X connect 40 0 66 0;
#X connect 40 1 66 1;
#X connect 41 0 42 0;
#X connect 43 0 75 0;
#X connect 43 1 75 1;
#X connect 44 0 0 1;
#X connect 45 0 23 0;
#X connect 46 0 17 0;
#X connect 47 0 38 0;
#X connect 48 0 51 0;
#X connect 49 0 50 0;
#X connect 50 0 35 0;
#X connect 51 0 50 0;
#X connect 51 1 50 1;
#X connect 52 0 1 1;
#X connect 54 0 55 0;
#X connect 55 0 56 0;
#X connect 55 1 56 1;
#X connect 55 1 58 0;
#X connect 56 0 41 0;
#X connect 57 0 62 0;
#X connect 58 0 59 0;
#X connect 59 0 57 0;
#X connect 59 1 57 1;
#X connect 60 0 63 0;
#X connect 61 0 60 1;
#X connect 63 0 2 0;
#X connect 63 1 65 0;
#X connect 64 0 63 1;
#X connect 66 0 67 0;
#X connect 66 1 67 1;
#X connect 67 0 68 0;
#X connect 67 1 68 1;
#X connect 68 0 69 0;
#X connect 68 1 69 1;
#X connect 70 0 57 2;
#X connect 71 0 57 3;
#X connect 72 0 57 4;
#X connect 73 0 57 5;
#X connect 74 0 84 0;
#X connect 74 1 84 1;
#X connect 75 0 31 0;
#X connect 75 1 31 1;
#X connect 76 0 3 0;
#X connect 78 0 13 1;
#X connect 79 0 19 1;
#X connect 80 0 27 1;
#X connect 81 0 74 0;
#X connect 82 0 74 0;
#X connect 84 0 85 0;
#X connect 84 1 85 1;
#X connect 85 0 30 0;
#X connect 85 1 30 1;
#X connect 86 0 87 0;
#X connect 87 0 90 0;
#X connect 88 0 89 1;
#X connect 89 0 93 0;
#X connect 90 0 92 0;
#X connect 90 1 89 0;
#X connect 91 0 94 0;
#X connect 92 0 91 0;
#X connect 93 0 91 0;
