#N struct 1013-symarray float x array symbols 1013-sym;
#N struct 1013-sym symbol name float on;
#N struct 1014-symarray float x array symbols 1014-sym;
#N struct 1014-sym symbol name float on;
#N canvas -1145 64 976 645 10;
#X declare -lib mrpeach;
#X declare -path grain;
#X declare -path rjlib;
#X declare -path misc;
#X obj 228 41 import mrpeach;
#X obj 429 147 Output;
#X obj 354 147 transport;
#X obj 429 103 r~ audio-l;
#X obj 511 103 r~ audio-r;
#X text 387 129 panic;
#X text 360 129 on?;
#X text 429 236 volume;
#X text 520 153 dsp on/off;
#X text 526 192 audio out level;
#X text 525 215 avg cpu load;
#X obj 118 427 voice-activator 32;
#X obj 118 380 r cfg;
#X floatatom 356 450 5 0 0 0 - voicenumdisplay -;
#X text 354 434 voices;
#X obj 223 450 s voicenumdisplay;
#X obj 288 399 s cfg;
#X obj 288 312 loadbang;
#X obj 118 403 route voicenumber;
#X msg 288 378 voicenumber \$1;
#X obj 227 69 OSCControl 57120;
#X obj 453 329 r transport;
#X obj 453 388 route play stop fastrewind;
#X obj 453 368 spigot;
#X obj 486 349 tgl 15 0 empty empty empty 17 7 0 10 -262144 -1 -1 0
1;
#X msg 453 416 all midinote 60 100;
#X msg 575 416 all midinote 60 0;
#X obj 453 440 s voices;
#X obj 638 331 s voices;
#X msg 637 259 all load-defaults;
#X obj 637 282 s voices;
#X obj 118 450 s voices;
#X obj 77 288 s~ audio-l;
#X obj 224 281 s~ audio-r;
#X obj 97 129 r voices;
#X obj 210 129 r settings;
#X obj 123 186 GrainBank 32;
#X msg 288 333 32;
#X msg 638 306 32 midinote 60 0;
#X floatatom 288 355 5 1 32 0 - - -;
#X obj 622 41 declare -path grain;
#X obj 622 62 declare -path rjlib;
#X obj 622 83 declare -path misc;
#X connect 3 0 1 0;
#X connect 4 0 1 1;
#X connect 11 0 31 0;
#X connect 11 1 15 0;
#X connect 12 0 18 0;
#X connect 17 0 37 0;
#X connect 18 0 11 0;
#X connect 19 0 16 0;
#X connect 21 0 23 0;
#X connect 22 0 25 0;
#X connect 22 1 26 0;
#X connect 22 2 26 0;
#X connect 23 0 22 0;
#X connect 24 0 23 1;
#X connect 25 0 27 0;
#X connect 26 0 27 0;
#X connect 29 0 30 0;
#X connect 34 0 36 0;
#X connect 35 0 36 1;
#X connect 36 0 32 0;
#X connect 36 1 33 0;
#X connect 37 0 39 0;
#X connect 38 0 28 0;
#X connect 39 0 19 0;
