#N canvas -1331 503 403 244 10;
#X obj 69 38 dumpOSC \$1;
#X obj 273 85 s transport;
#X obj 205 87 s effects;
#X obj 69 85 s voices;
#X obj 69 63 routeOSC /voices /settings /effects /transport;
#X obj 137 86 s settings;
#X connect 0 0 4 0;
#X connect 4 0 3 0;
#X connect 4 1 5 0;
#X connect 4 2 2 0;
#X connect 4 3 1 0;
