#N canvas 0 245 540 375 10;
#X obj 302 204 vsl 40 80 0 127 0 0 \$0-volout \$0-volin empty 0 -9
0 10 -262144 -1 -1 6220 1;
#X obj 67 169 *~;
#X obj 113 169 *~;
#X obj 82 82 / 127;
#X obj 82 122 line~;
#X msg 82 102 \$1 20;
#X obj 67 194 dac~;
#X obj 178 -8 loadbang;
#X msg 178 43 100;
#X obj 347 202 tgl 40 0 \$0-dsponout \$0-dsponin empty 17 7 0 10 -262144
-1 -1 1 1;
#X obj 22 93 inlet~;
#X obj 138 94 inlet~;
#X obj 82 62 r \$0-volout;
#X obj 178 67 s \$0-volin;
#X obj 191 21 s \$0-dsponin;
#X obj 344 47 r \$0-dsponout;
#X obj 140 125 hip~ 3;
#X obj 19 122 hip~ 3;
#N canvas 0 0 450 300 meter 0;
#X obj 22 27 inlet~;
#X obj 26 69 env~;
#X obj 192 113 f;
#X msg 191 76 0;
#X obj 116 111 moses 0;
#X obj 162 174 outlet;
#X obj 194 51 del 1500;
#X msg 194 29 bang;
#X obj 89 28 inlet~;
#X obj 93 70 env~;
#X connect 0 0 1 0;
#X connect 1 0 4 0;
#X connect 2 0 4 1;
#X connect 3 0 4 1;
#X connect 4 1 2 0;
#X connect 4 1 5 0;
#X connect 4 1 7 0;
#X connect 6 0 3 0;
#X connect 7 0 6 0;
#X connect 8 0 9 0;
#X connect 9 0 4 0;
#X restore 140 194 pd meter;
#X obj 140 216 int;
#X obj 140 237 - 100;
#X floatatom 352 248 5 0 0 0 - #0-vumeter -;
#X obj 140 261 s \$0-vumeter;
#X obj 344 72 dsp~;
#X floatatom 352 269 5 0 0 0 - #0-cpuload -;
#X obj 344 96 s \$0-cpuload;
#X connect 1 0 6 0;
#X connect 2 0 6 1;
#X connect 3 0 5 0;
#X connect 4 0 2 1;
#X connect 4 0 1 1;
#X connect 5 0 4 0;
#X connect 7 0 8 0;
#X connect 7 0 14 0;
#X connect 8 0 13 0;
#X connect 10 0 17 0;
#X connect 11 0 16 0;
#X connect 12 0 3 0;
#X connect 15 0 23 0;
#X connect 16 0 2 0;
#X connect 16 0 18 1;
#X connect 17 0 1 0;
#X connect 17 0 18 0;
#X connect 18 0 19 0;
#X connect 19 0 20 0;
#X connect 20 0 22 0;
#X connect 23 0 25 0;
#X coords 1 1 0 0 90 90 2 300 200;
