#N canvas 0 374 392 195 10;
#X obj 120 29 inlet;
#X obj 184 107 outlet;
#X obj 272 117 outlet;
#X obj 272 35 inlet;
#X obj 120 155 s \$2-\$1-set;
#X obj 288 63 r \$2-\$1-get;
#X obj 288 88 list prepend \$1;
#X obj 32 23 loadbang;
#X obj 32 44 symbol \$3;
#X obj 32 64 sel default;
#X obj 32 85 \$4;
#X obj 120 53 route \$1 load-defaults;
#X msg 184 80 load-defaults;
#X connect 0 0 11 0;
#X connect 3 0 2 0;
#X connect 5 0 6 0;
#X connect 6 0 2 0;
#X connect 7 0 8 0;
#X connect 8 0 9 0;
#X connect 9 0 10 0;
#X connect 10 0 4 0;
#X connect 11 0 4 0;
#X connect 11 1 8 0;
#X connect 11 1 12 0;
#X connect 11 2 1 0;
#X connect 12 0 1 0;
