#N canvas -913 385 478 209 10;
#X obj 170 47 inlet;
#X obj 170 71 route \$1;
#X obj 215 97 outlet;
#X obj 281 128 outlet;
#X obj 281 46 inlet;
#X obj 170 130 s \$2-\$1-set;
#X obj 297 74 r \$2-\$1-get;
#X obj 297 99 list prepend \$1;
#X obj 82 41 loadbang;
#X obj 82 62 symbol \$3;
#X obj 82 82 sel default;
#X obj 82 103 \$4;
#X connect 0 0 1 0;
#X connect 1 0 5 0;
#X connect 1 1 2 0;
#X connect 4 0 3 0;
#X connect 6 0 7 0;
#X connect 7 0 3 0;
#X connect 8 0 9 0;
#X connect 9 0 10 0;
#X connect 10 0 11 0;
#X connect 11 0 5 0;
