#N canvas 168 234 351 209 10;
#X obj 50 26 inlet;
#X obj 50 50 route \$1;
#X obj 95 76 outlet;
#X obj 161 107 outlet;
#X obj 161 25 inlet;
#X obj 50 109 s \$2-\$1-set;
#X obj 177 53 r \$2-\$1-get;
#X obj 177 78 list prepend \$1;
#X connect 0 0 1 0;
#X connect 1 0 5 0;
#X connect 1 1 2 0;
#X connect 4 0 3 0;
#X connect 6 0 7 0;
#X connect 7 0 3 0;
