#N struct 1127-symarray float x array symbols 1127-sym;
#N struct 1127-sym symbol name float on;
#N canvas -915 117 617 679 10;
#X obj 59 207 textfile;
#X obj 59 371 list prepend open;
#X obj 59 394 list trim;
#X msg 292 110 reset;
#X obj 59 182 until;
#X obj 59 80 t b b b;
#X obj 59 55 loadbang;
#X obj 59 229 list split 1;
#X obj 59 345 list;
#X obj 186 396 inlet;
#X obj 121 487 outlet;
#X msg 100 183 read \$1/\$2.txt \, rewind;
#X obj 100 113 t b b;
#X obj 100 137 symbol \$1;
#X obj 161 137 symbol \$2;
#X obj 59 275 symbol \$1;
#X obj 120 275 symbol \$2;
#X obj 59 251 t b s;
#X obj 100 161 pack s s;
#X obj 59 299 pack s s;
#X msg 59 321 \$1/\$2;
#X obj 121 465 list trim;
#X obj 121 443 u_multisamplebank \$0-samples;
#X connect 0 0 7 0;
#X connect 0 1 4 1;
#X connect 1 0 2 0;
#X connect 2 0 22 0;
#X connect 3 0 22 1;
#X connect 4 0 0 0;
#X connect 5 0 4 0;
#X connect 5 1 12 0;
#X connect 5 2 3 0;
#X connect 6 0 5 0;
#X connect 7 0 17 0;
#X connect 7 1 8 1;
#X connect 8 0 1 0;
#X connect 9 0 22 0;
#X connect 11 0 0 0;
#X connect 12 0 13 0;
#X connect 12 1 14 0;
#X connect 13 0 18 0;
#X connect 14 0 18 1;
#X connect 15 0 19 0;
#X connect 16 0 19 1;
#X connect 17 0 15 0;
#X connect 17 1 16 0;
#X connect 18 0 11 0;
#X connect 19 0 20 0;
#X connect 20 0 8 0;
#X connect 21 0 10 0;
#X connect 22 0 21 0;
