#N canvas -788 309 427 242 10;
#X obj 169 32 r transport;
#X msg 285 160 notes 60 0;
#X obj 83 62 bng 30 250 50 0 \$0-panicsend \$0-panicrecv empty 17 7
0 10 -262144 -1 -1;
#X obj 285 183 s allgrains;
#X obj 52 62 tgl 30 0 empty \$0-playdisplay empty 17 7 0 10 -262144
-1 -1 0 1;
#X msg 168 97 1;
#X msg 199 98 0;
#X obj 169 68 route play stop fastrewind;
#X obj 168 135 s \$0-playdisplay;
#X obj 258 97 s \$0-panicrecv;
#X obj 285 137 r \$0-panicsend;
#X text 51 42 play;
#X text 82 42 panic;
#X connect 0 0 7 0;
#X connect 1 0 3 0;
#X connect 5 0 8 0;
#X connect 6 0 8 0;
#X connect 7 0 5 0;
#X connect 7 1 6 0;
#X connect 7 1 9 0;
#X connect 7 2 6 0;
#X connect 7 2 9 0;
#X connect 10 0 1 0;
#X coords 0 -1 1 1 65 34 2 50 60;
