#N canvas -862 430 331 338 10;
#X obj 59 114 until;
#X obj 87 138 + 1;
#X obj 59 136 i;
#X msg 99 116 0;
#X obj 59 26 inlet;
#X obj 59 92 t f b f;
#X obj 59 48 t b f;
#X obj 59 70 \$1;
#X obj 87 160 t f f;
#X obj 114 184 <=;
#X obj 87 206 pack;
#X msg 87 228 \$1 active \$2;
#X obj 87 250 outlet;
#X obj 148 65 outlet;
#X connect 0 0 2 0;
#X connect 1 0 2 1;
#X connect 1 0 8 0;
#X connect 2 0 1 0;
#X connect 3 0 2 1;
#X connect 4 0 6 0;
#X connect 5 0 0 0;
#X connect 5 1 3 0;
#X connect 6 0 7 0;
#X connect 6 1 9 1;
#X connect 6 1 13 0;
#X connect 7 0 5 0;
#X connect 8 0 10 0;
#X connect 8 1 9 0;
#X connect 9 0 10 1;
#X connect 10 0 11 0;
#X connect 11 0 12 0;
